<?xml version="1.0" standalone="no"?>
<!DOCTYPE svg PUBLIC "-//W3C//DTD SVG 20010904//EN"
 "http://www.w3.org/TR/2001/REC-SVG-20010904/DTD/svg10.dtd">
<svg version="1.0" xmlns="http://www.w3.org/2000/svg"
 width="471.000000pt" height="471.000000pt" viewBox="0 0 471.000000 471.000000"
 preserveAspectRatio="xMidYMid meet">
<metadata>
Created by potrace 1.11, written by Peter Selinger 2001-2013
</metadata>
<g transform="translate(0.000000,471.000000) scale(0.100000,-0.100000)"
fill="#000000" stroke="none">
<path d="M2798 4449 c-3 -5 -26 -18 -148 -87 -19 -10 -114 -64 -210 -120 -96
-55 -198 -113 -226 -129 -94 -53 -589 -334 -604 -344 -20 -12 -627 -357 -665
-378 -23 -12 -45 -46 -95 -146 l-65 -130 1 -172 1 -172 51 -74 50 -74 -41 -44
c-23 -24 -33 -36 -22 -28 63 48 70 49 101 22 16 -13 51 -43 78 -66 27 -23 54
-46 60 -52 16 -14 82 -71 151 -130 32 -27 70 -60 84 -73 53 -47 222 -149 491
-295 30 -16 60 -33 65 -37 37 -27 322 -179 640 -341 l374 -190 382 1 c211 0
380 -3 376 -6 -4 -4 1 -19 10 -35 16 -27 16 -29 -10 -53 -110 -102 -561 -328
-697 -349 -39 -6 -130 -19 -163 -22 -12 -1 -26 -3 -30 -4 -8 -1 0 -98 9 -112
10 -16 -30 -39 -121 -70 -84 -29 -113 -34 -180 -33 -76 1 -86 4 -197 59 l-116
57 15 51 c16 55 11 66 -37 68 -14 0 -36 2 -50 5 -14 2 -36 6 -50 8 -14 2 -126
43 -250 91 -192 75 -248 102 -380 184 -85 52 -173 111 -195 131 -22 21 -74 66
-115 102 -83 72 -182 203 -235 313 -25 52 -43 118 -70 255 -32 163 -40 189
-66 220 -16 19 -48 63 -72 97 -23 35 -45 63 -48 63 -3 0 -16 -36 -29 -80 -13
-44 -24 -80 -26 -80 -2 0 -34 14 -71 31 -107 49 -153 69 -153 64 0 -2 48 -84
107 -182 l107 -178 2 -110 c2 -96 6 -120 32 -185 97 -243 191 -398 325 -532
145 -145 277 -228 552 -345 121 -52 227 -96 235 -98 8 -2 47 -10 85 -19 39 -9
81 -18 95 -20 83 -15 186 -40 194 -47 4 -4 -5 -33 -22 -64 l-31 -56 32 -14
c18 -7 120 -45 228 -85 168 -62 201 -71 235 -65 65 12 70 13 121 21 26 4 103
33 170 65 l122 58 -14 35 c-8 20 -15 42 -15 50 0 13 58 36 130 50 63 12 340
106 380 128 25 14 99 53 165 88 102 53 176 103 233 157 7 6 47 40 89 75 109
91 368 426 430 558 103 220 115 240 201 329 116 120 210 235 186 228 -10 -3
-35 -8 -54 -11 -19 -3 -59 -10 -89 -16 -81 -15 -78 -18 -79 58 0 104 -2 118
-10 106 -4 -6 -45 -44 -91 -83 -110 -95 -102 -85 -145 -174 -30 -63 -44 -81
-67 -89 -20 -7 -29 -16 -26 -27 4 -21 -165 -297 -203 -331 -3 -3 -26 -32 -50
-66 -41 -55 -174 -184 -191 -184 -14 0 -18 65 -19 316 -1 142 -3 381 -5 529
-2 149 -6 520 -9 825 -12 1080 -17 1404 -22 1409 -7 7 -813 7 -816 0z"/>
</g>
</svg>
